<svg xmlns="http://www.w3.org/2000/svg" viewBox="0 0 700 820">
  <defs>
    <linearGradient id="ag" x1="0" y1="0" x2="1" y2="1">
      <stop stop-color="#D4B9AE"/>
      <stop offset="1" stop-color="#8B6D68"/>
    </linearGradient>
    <linearGradient id="ag2" x1="0" y1="0" x2="0" y2="1">
      <stop stop-color="#ffffff33"/>
      <stop offset="1" stop-color="#ffffff00"/>
    </linearGradient>
  </defs>
  <rect width="700" height="820" rx="28" fill="url(#ag)"/>
  <circle cx="560" cy="150" r="130" fill="#ffffff1f"/>
  <circle cx="120" cy="700" r="170" fill="#00000014"/>
  <rect x="0" y="0" width="700" height="820" rx="28" fill="url(#ag2)"/>

  <!-- table setup illustration -->
  <ellipse cx="350" cy="560" rx="230" ry="34" fill="#00000022"/>
  <rect x="180" y="470" width="340" height="14" rx="7" fill="#fdf7f2"/>
  <rect x="200" y="484" width="300" height="70" rx="10" fill="#fffaf5"/>

  <!-- plates -->
  <circle cx="260" cy="518" r="26" fill="#f3e1dc"/>
  <circle cx="260" cy="518" r="17" fill="#fffaf5"/>
  <circle cx="440" cy="518" r="26" fill="#f3e1dc"/>
  <circle cx="440" cy="518" r="17" fill="#fffaf5"/>
  <circle cx="350" cy="512" r="30" fill="#e7c98d"/>
  <circle cx="350" cy="512" r="20" fill="#fffaf5"/>

  <!-- candle / centerpiece -->
  <rect x="344" y="440" width="12" height="60" rx="6" fill="#e7c98d"/>
  <circle cx="350" cy="434" r="10" fill="#ffe9b3"/>

  <!-- floral arch -->
  <path d="M120 380 Q350 220 580 380" stroke="#fffaf5" stroke-width="8" fill="none" stroke-linecap="round" opacity=".85"/>
  <circle cx="150" cy="360" r="14" fill="#ffe9b3"/>
  <circle cx="200" cy="310" r="11" fill="#f3e1dc"/>
  <circle cx="255" cy="278" r="13" fill="#ffffff"/>
  <circle cx="350" cy="262" r="15" fill="#ffe9b3"/>
  <circle cx="445" cy="278" r="13" fill="#f3e1dc"/>
  <circle cx="500" cy="310" r="11" fill="#ffffff"/>
  <circle cx="550" cy="360" r="14" fill="#ffe9b3"/>

  <!-- string lights -->
  <path d="M60 150 Q350 60 640 150" stroke="#ffffff88" stroke-width="3" fill="none"/>
  <g fill="#ffe9b3">
    <circle cx="120" cy="126" r="6"/>
    <circle cx="230" cy="98" r="6"/>
    <circle cx="350" cy="86" r="6"/>
    <circle cx="470" cy="98" r="6"/>
    <circle cx="580" cy="126" r="6"/>
  </g>

  <text x="50%" y="94%" text-anchor="middle" fill="#ffffffd9" font-family="Georgia,serif" font-size="26" letter-spacing="1">Creative Corner</text>
  <text x="50%" y="97.5%" text-anchor="middle" fill="#ffffffa8" font-family="Arial" font-size="13" letter-spacing="3">EVENT MANAGEMENT · SINCE DAY ONE</text>
</svg>
